#define font_width 640
#define font_height 6
static unsigned char font_bits[] = {
   0xff, 0xff, 0xff, 0xff, 0xff, 0xff, 0xff, 0xff, 0xff, 0xff, 0xff, 0xff,
   0xff, 0xff, 0xff, 0xff, 0xff, 0xff, 0xff, 0xff, 0x80, 0x28, 0xe0, 0xa5,
   0x21, 0x48, 0x10, 0x00, 0x00, 0x80, 0x8e, 0x38, 0x17, 0xbe, 0xfb, 0xce,
   0x01, 0x00, 0x00, 0x70, 0xce, 0x3d, 0xf7, 0xfe, 0x77, 0xf1, 0xff, 0x18,
   0x62, 0x74, 0xcf, 0x3d, 0xff, 0x63, 0x8c, 0x31, 0x7e, 0x16, 0x0c, 0x01,
   0xc4, 0x3d, 0xf7, 0xfe, 0x77, 0xf1, 0xff, 0x18, 0x62, 0x74, 0xcf, 0x3d,
   0xff, 0x63, 0x8c, 0x31, 0x7e, 0x44, 0x04, 0xf8, 0x13, 0x00, 0x00, 0x00,
   0x00, 0x00, 0x00, 0x00, 0x00, 0x00, 0x00, 0x00, 0x00, 0x00, 0x00, 0x00,
   0x00, 0x00, 0x00, 0x00, 0x80, 0x28, 0x55, 0x52, 0x22, 0x84, 0x54, 0x02,
   0x00, 0x40, 0xd1, 0xc4, 0x18, 0x43, 0x80, 0x31, 0x12, 0x82, 0xc1, 0x88,
   0x31, 0xc6, 0x18, 0x43, 0x88, 0x91, 0xc0, 0x14, 0xf6, 0x8c, 0x31, 0xc6,
   0x40, 0x62, 0x8c, 0x2a, 0x42, 0x22, 0x88, 0x02, 0x28, 0xc6, 0x18, 0x43,
   0x88, 0x91, 0xc0, 0x14, 0xf6, 0x8c, 0x31, 0xc6, 0x40, 0x62, 0x8c, 0x2a,
   0x42, 0x42, 0x08, 0x00, 0x15, 0x00, 0x00, 0x00, 0x00, 0x00, 0x00, 0x00,
   0x00, 0x00, 0x00, 0x00, 0x00, 0x00, 0x00, 0x00, 0x00, 0x00, 0x00, 0x00,
   0x80, 0x80, 0x6f, 0x88, 0x00, 0x84, 0x38, 0x02, 0x00, 0x20, 0x91, 0x20,
   0x14, 0xdf, 0x43, 0x2e, 0x02, 0x60, 0x3e, 0x43, 0xf5, 0xbf, 0x10, 0xcf,
   0x09, 0x9f, 0xc0, 0x13, 0x6a, 0x8d, 0x2f, 0x3e, 0x47, 0x62, 0x8c, 0xc4,
   0x33, 0x42, 0x08, 0x00, 0xe0, 0xbf, 0x10, 0xcf, 0x09, 0x9f, 0xc0, 0x13,
   0x6a, 0x8d, 0x2f, 0x3e, 0x47, 0x62, 0x8c, 0xc4, 0x33, 0x43, 0x98, 0x04,
   0x15, 0x00, 0x00, 0x00, 0x00, 0x00, 0x00, 0x00, 0x00, 0x00, 0x00, 0x00,
   0x00, 0x00, 0x00, 0x00, 0x00, 0x00, 0x00, 0x00, 0x80, 0x00, 0xc5, 0x48,
   0x01, 0x84, 0xd4, 0x0f, 0x3e, 0x20, 0x91, 0x10, 0xf8, 0x61, 0x44, 0xd1,
   0x03, 0x10, 0x00, 0x24, 0x3d, 0xc6, 0x10, 0x43, 0xc8, 0x91, 0xc0, 0x14,
   0x62, 0x8d, 0x21, 0x46, 0x48, 0xa2, 0x8a, 0x04, 0x0a, 0x42, 0x08, 0x00,
   0x20, 0xc6, 0x10, 0x43, 0xc8, 0x91, 0xc0, 0x14, 0x62, 0x8d, 0x21, 0x46,
   0x48, 0xa2, 0x8a, 0x04, 0x0a, 0x42, 0x48, 0x03, 0x19, 0x00, 0x00, 0x00,
   0x00, 0x00, 0x00, 0x00, 0x00, 0x00, 0x00, 0x00, 0x00, 0x00, 0x00, 0x00,
   0x00, 0x00, 0x00, 0x00, 0x00, 0x80, 0x4f, 0x65, 0x02, 0x84, 0x10, 0x42,
   0x00, 0x11, 0x91, 0x88, 0x08, 0x63, 0x24, 0x11, 0x12, 0x62, 0x3e, 0x03,
   0x21, 0xc6, 0x18, 0x43, 0x88, 0x91, 0xc4, 0x18, 0x62, 0x8e, 0x21, 0x47,
   0x48, 0xa2, 0xaa, 0x0a, 0x06, 0x82, 0x08, 0x00, 0x20, 0xc6, 0x18, 0x43,
   0x88, 0x91, 0xc4, 0x18, 0x62, 0x8e, 0x21, 0x47, 0x48, 0xa2, 0xaa, 0x0a,
   0x06, 0x42, 0x08, 0x00, 0x1f, 0x00, 0x00, 0x00, 0x00, 0x00, 0x00, 0x00,
   0x00, 0x00, 0x00, 0x00, 0x00, 0x00, 0x00, 0x00, 0x00, 0x00, 0x00, 0x00,
   0x80, 0x00, 0xf5, 0x92, 0x05, 0x48, 0x00, 0x42, 0x00, 0x08, 0xee, 0x7f,
   0x07, 0x9d, 0x23, 0xce, 0x01, 0x82, 0xc1, 0x20, 0x3e, 0x3e, 0xf7, 0x7e,
   0xf0, 0xf1, 0xbb, 0xf8, 0x63, 0x74, 0xc1, 0xc7, 0x47, 0x1c, 0x51, 0xd1,
   0x7d, 0x06, 0x0d, 0xf8, 0x20, 0x3e, 0xf7, 0x7e, 0xf0, 0xf1, 0xbb, 0xf8,
   0x63, 0x74, 0xc1, 0xc7, 0x47, 0x1c, 0x51, 0xd1, 0x7d, 0x44, 0x04, 0x00 };
